<?xml version="1.0"?><svg width="25" height="19" xmlns="http://www.w3.org/2000/svg">
 <title>curve road</title>
 <metadata id="metadata7">image/svg+xml</metadata>
 <g>
  <title>Layer 1</title>
  <g id="layer1">
   <g id="g3874">
    <path fill="rgba(255,255,255,0)" stroke="#ffffff" stroke-width="7" stroke-linecap="square" d="m607.865479,0.414246c-66.912964,9.067993 -243.639984,32.504028 -265.71402,66.968018c-16.227966,25.338013 239.813995,48.539978 114.286041,78.130005c-155.344025,36.618958 -364.513031,56.346008 -540.000031,113.474976c-277.611389,90.372986 507.356964,226.794006 625.71402,267.873962l860.004028,2.890015c-517.670044,-100.737976 -1329.044037,-204.573975 -1151.433075,-257.742981c178.262054,-53.364014 210.371063,-60.112976 374.283051,-113.473999c119.410034,-38.872009 -179.963013,-75.833984 -214.283081,-94.872009c-52.840912,-29.313965 160.333008,-53.109985 212.09314,-62.703979l-14.950073,-0.544006z" id="path3835"/>
    <path fill="rgba(255,255,255,0)" stroke="#ffffff" stroke-width="3" stroke-linecap="square" d="m613.926636,1.071533c-22.437866,2.983398 -44.851685,6.155212 -67.223267,9.610596c-27.333984,4.221863 -54.619385,8.814392 -81.729736,14.327393c-12.440063,2.529724 -24.846191,5.253662 -37.15332,8.393311c-0.000122,0 -0.000122,0 -0.000122,0c-10.046387,2.562561 -20.057495,5.358154 -29.813232,8.932617c0,0 -0.000122,0 -0.000122,0c-3.734863,1.368286 -7.438599,2.856995 -11.026978,4.612183c-2.728271,1.332458 -5.424438,2.816162 -7.859619,4.70459c-1.686279,1.292053 -3.328247,2.85022 -4.264771,4.898315c-0.361572,0.800354 -0.576416,1.684021 -0.573486,2.592163c0.01001,0.912781 0.24292,1.801697 0.635498,2.599976c0,0.000061 0,0.000061 0.000122,0.000061c0.394043,0.782898 0.970703,1.399841 1.55835,1.912476c0.831055,0.739502 1.739258,1.358215 2.655518,1.920837c2.662354,1.638123 5.501831,2.922241 8.339111,4.123169c3.909912,1.656982 7.889771,3.126709 11.884155,4.527771c0.000122,0 0.000122,0 0.000122,0c4.897217,1.718018 9.830078,3.324646 14.775024,4.881409c11.785034,3.710083 23.649658,7.147156 35.517334,10.548584c12.97583,3.719055 25.966553,7.374329 38.928101,11.117798c12.336182,3.562866 24.64978,7.188232 36.864502,11.10437c9.902222,3.175537 19.757324,6.46991 29.294434,10.492859c3.444702,1.453918 6.836914,2.989807 10.051636,4.804749c0,0 0,0 0,0c2.211792,1.261719 4.355103,2.553528 5.967163,4.284485c0.52124,0.569641 0.973755,1.135376 1.201172,1.730347c0.166382,0.439758 0.243652,0.899048 0.138184,1.259521c0,0 0,0 0,0.000061c-0.074951,0.422302 -0.40625,0.854614 -0.80835,1.27356c-0.593872,0.593506 -1.385498,1.05658 -2.242188,1.494751c-0.927124,0.466248 -1.946655,0.836487 -3.003418,1.222961c0,0 0,0 0,0c-1.678955,0.610168 -3.38501,1.170837 -5.103516,1.720581c-5.228149,1.671753 -10.508545,3.20459 -15.803711,4.716858c-16.68042,4.76355 -33.453857,9.217285 -50.24231,13.638428c-48.619385,12.803528 -97.374268,25.098633 -146.143707,37.353394c0,0 0,0 0,0c-50.737976,12.74939 -101.508301,25.375732 -152.272949,38.033875c-19.30835,4.814575 -38.618286,9.630249 -57.918274,14.493225c-11.614685,2.926392 -23.253418,5.825012 -34.854126,8.934875c-7.306213,1.95575 -14.594299,4.210815 -21.664673,7.155334c-0.000061,0.000061 -0.000061,0.000061 -0.000122,0.000061c-5.018555,2.078857 -10.032959,4.546387 -14.555542,7.934509c-1.690857,1.267395 -3.317963,2.706604 -4.770752,4.373047c0,0 -0.000031,0 -0.000031,0c-1.216125,1.390442 -2.292908,2.976746 -3.101532,4.758545c0,0.000061 -0.000031,0.000061 -0.000061,0.000122c-0.720032,1.597229 -1.172394,3.333069 -1.295013,5.127869c-0.111481,1.795471 0.106049,3.567688 0.588043,5.236267c1.185913,3.975281 3.504761,7.310852 6.073486,10.079224c3.490723,3.826416 7.515198,6.998352 11.625488,9.835571c5.369446,3.719238 11.010437,6.958801 16.722961,9.953918c7.032227,3.689575 14.223816,7.025208 21.475159,10.16272c0,0.000061 0,0.000061 0.000061,0.000061c18.235352,7.890503 36.915771,14.625244 55.689636,20.914673c0,0 0.000061,0 0.000061,0c23.157288,7.759521 46.539734,14.790466 70.005493,21.456116c0.000061,0 0.000061,0 0.000122,0.000061c56.206116,15.966125 112.951294,29.905762 169.827789,43.100647c62.323608,14.459106 124.870483,27.914307 187.51355,40.844604c59.467407,12.274841 119.032959,24.053528 178.647827,35.548645c47.714722,9.200439 95.462769,18.19165 143.199219,27.202637c0,0.000122 0.000122,0.000122 0.000122,0.000122c16.67334,3.147461 33.339233,6.291992 49.981934,9.514893c6.048584,1.171387 12.088989,2.352173 18.116089,3.565796c4.34082,0.874146 8.659546,1.756104 12.943604,2.699463l2.125122,-9.771606c-4.387817,-0.942749 -8.769287,-1.814941 -13.132813,-2.67041c-6.069702,-1.19043 -12.139893,-2.345337 -18.205688,-3.488281c-16.689453,-3.14502 -33.385864,-6.208496 -50.074341,-9.271973c-47.783813,-8.771362 -95.564209,-17.519958 -143.299316,-26.475525c-59.644409,-11.190063 -119.232056,-22.661865 -178.717163,-34.628845c-62.664185,-12.606567 -125.217407,-25.734009 -187.540039,-39.863159c-56.883392,-12.896545 -113.591766,-26.52356 -169.736725,-42.168823c0,0 -0.000061,0 -0.000061,0c-23.438965,-6.531616 -46.767883,-13.417847 -69.850403,-21.024109c-0.000061,-0.000061 -0.000061,-0.000061 -0.000122,-0.000061c-18.72229,-6.170837 -37.286682,-12.754822 -55.352173,-20.467651c-0.000061,-0.000061 -0.000061,-0.000061 -0.000122,-0.000061c-7.180725,-3.065918 -14.267639,-6.307983 -21.16333,-9.883606c-5.606873,-2.909424 -11.078857,-6.009399 -16.21936,-9.538208c-3.942261,-2.716187 -7.686523,-5.610413 -10.789856,-9.009155c-2.239441,-2.499939 -4.194702,-5.14624 -4.983856,-8.024658c-0.334625,-1.165161 -0.497162,-2.361145 -0.421753,-3.508728c0.064117,-1.144897 0.366425,-2.304016 0.846222,-3.396912c0.539673,-1.241028 1.347534,-2.419983 2.294739,-3.534546c0,-0.000061 0,-0.000061 0.000061,-0.000061c1.143066,-1.339417 2.50824,-2.546936 3.984192,-3.676453c3.982605,-3.049438 8.629944,-5.337158 13.446411,-7.387634c0,0 0.000061,0 0.000061,0c6.765747,-2.864685 13.840454,-5.086609 21.018738,-7.052917c11.529968,-3.153381 23.131714,-6.104614 34.739624,-9.091736c0.000061,0 0.000061,0 0.000122,0c19.268066,-4.95813 38.549988,-9.869995 57.833801,-14.781555c50.698608,-12.912964 101.40741,-25.795166 152.086182,-38.801025c0,0 0.000061,0 0.000061,0c48.709076,-12.500366 97.414154,-25.043884 145.98703,-38.096741c16.769653,-4.506348 33.538696,-9.0495 50.224731,-13.905396c5.294556,-1.540649 10.592041,-3.107727 15.852905,-4.818848c1.728516,-0.562073 3.461182,-1.141602 5.18335,-1.776917c1.059692,-0.388672 2.161011,-0.800537 3.247314,-1.347107c0.000122,0 0.000122,0 0.000122,0c0.972046,-0.48175 1.95874,-1.091003 2.82605,-1.931213c0.640381,-0.603943 1.182007,-1.418762 1.440552,-2.418335c0,0 0,0 0,-0.000061c0.201172,-0.946289 0.082031,-1.878906 -0.26123,-2.680725c-0.417725,-0.976074 -1.028198,-1.77771 -1.675659,-2.44043c-1.928345,-2.002625 -4.258667,-3.423218 -6.53479,-4.677795c0,-0.000061 0,-0.000061 -0.000122,-0.000061c-3.342163,-1.861511 -6.818726,-3.41748 -10.307983,-4.866821c-9.66272,-4.016296 -19.592407,-7.282166 -29.527344,-10.411316c-12.265869,-3.864319 -24.615112,-7.432983 -36.975342,-10.935364c0,0 0,0 0,0c-12.988525,-3.680542 -25.998291,-7.270691 -38.987427,-10.922974c-11.88147,-3.340881 -23.749634,-6.714233 -35.531494,-10.358459c-4.943237,-1.528992 -9.869141,-3.105957 -14.755005,-4.792419c-3.986816,-1.376404 -7.946655,-2.815613 -11.825684,-4.437073c-2.822754,-1.18158 -5.608765,-2.420898 -8.182983,-3.991089c-0.884521,-0.54071 -1.734741,-1.109741 -2.482544,-1.772888c-0.526611,-0.477051 -1.006836,-0.960754 -1.27002,-1.515381c-0.318237,-0.647888 -0.512451,-1.354004 -0.517822,-2.052612c-0.012207,-0.697021 0.162476,-1.408447 0.453857,-2.074524c0.759888,-1.762451 2.272949,-3.174011 3.874634,-4.448669c2.322021,-1.825439 4.942627,-3.279968 7.629028,-4.613464c3.52832,-1.748718 7.188843,-3.240662 10.895142,-4.620483c0,-0.000061 0,-0.000061 0.000122,-0.000061c9.682617,-3.604187 19.647827,-6.440247 29.667114,-9.050537c12.270508,-3.196289 24.64978,-5.979553 37.069214,-8.570313c27.06543,-5.645874 54.32019,-10.37439 81.629639,-14.733276c22.351074,-3.567383 44.747681,-6.851807 67.170288,-9.947998z"/>
   </g>
  </g>
 </g>
</svg>